<svg xmlns="http://www.w3.org/2000/svg" width="0" height="0" style="position:absolute;overflow:hidden" aria-hidden="true">

<symbol id="i-tools" viewBox="0 0 24 24"><path d="M4 20L20 4"></path><circle cx="9" cy="15" r="2.6"></circle><circle cx="16.5" cy="7.5" r="2.6"></circle></symbol>
<symbol id="i-layers" viewBox="0 0 24 24"><path d="M12 3.5l8 4-8 4-8-4z"></path><path d="M4 12l8 4 8-4"></path><path d="M4 16.5l8 4 8-4"></path></symbol>
<symbol id="i-ask" viewBox="0 0 24 24"><path d="M3.5 12h6l3-5 3 5h5"></path><circle cx="9.5" cy="12" r="2.4"></circle><path d="M12 3.5v3"></path></symbol>
<symbol id="i-log" viewBox="0 0 24 24"><path d="M5 5v14"></path><path d="M9 6.5h11M9 12h8M9 17.5h5"></path><path d="M3.5 6.5h3M3.5 12h3M3.5 17.5h3"></path></symbol>
<symbol id="i-answers" viewBox="0 0 24 24"><path d="M4 6h16v12H4z"></path><path d="M7.5 12.5l2.6 2.6 6-6"></path><path d="M4 9h16"></path></symbol>
<symbol id="i-radar" viewBox="0 0 24 24"><circle cx="12" cy="12" r="8.5"></circle><circle cx="12" cy="12" r="4.4"></circle><path d="M12 12l6-6"></path><path d="M12 1.8v2.4M12 19.8v2.4M1.8 12h2.4M19.8 12h2.4"></path></symbol>
<symbol id="i-pin" viewBox="0 0 24 24"><path d="M12 21l-5.5-8.2A6.6 6.6 0 1 1 17.5 12.8z"></path><circle cx="12" cy="9.8" r="2.2"></circle></symbol>
<symbol id="i-crosshair" viewBox="0 0 24 24"><path d="M12 2v20M2 12h20"></path><circle cx="12" cy="12" r="5.4"></circle></symbol>
<symbol id="i-seek" viewBox="0 0 24 24"><circle cx="10.4" cy="10.4" r="6.2"></circle><path d="M15 15l5.2 5.2"></path><path d="M10.4 6.6v7.6M6.6 10.4h7.6"></path></symbol>
<symbol id="i-hide" viewBox="0 0 24 24"><path d="M3.5 11.5L12 4l8.5 7.5"></path><path d="M6 12v8h12v-8"></path><path d="M10 20v-4.5h4V20"></path></symbol>
<symbol id="i-copy" viewBox="0 0 24 24"><path d="M9 9h11v11H9z"></path><path d="M15 5.5V4H4v11h1.5"></path></symbol>
<symbol id="i-link" viewBox="0 0 24 24"><path d="M10 14l-2 2a3.6 3.6 0 0 1-5-5l2-2"></path><path d="M14 10l2-2a3.6 3.6 0 0 1 5 5l-2 2"></path><path d="M9.2 14.8l5.6-5.6"></path></symbol>
<symbol id="i-dial" viewBox="0 0 24 24"><path d="M4 7.5h16M4 16.5h16"></path><circle cx="9" cy="7.5" r="2.4"></circle><circle cx="15.5" cy="16.5" r="2.4"></circle></symbol>
<symbol id="i-help" viewBox="0 0 24 24"><path d="M4 4h16v16H4z"></path><path d="M9.4 9.6a2.6 2.6 0 1 1 3.7 2.4c-.9.5-1.4 1-1.4 2"></path><path d="M11.7 17.2h.6"></path></symbol>
<symbol id="i-close" viewBox="0 0 24 24"><path d="M5.5 5.5l13 13M18.5 5.5l-13 13"></path></symbol>
<symbol id="i-back" viewBox="0 0 24 24"><path d="M9.5 6L4 11.5h12a3.8 3.8 0 0 1 0 7.6h-6"></path><path d="M9.5 17L4 11.5"></path></symbol>
<symbol id="i-clock" viewBox="0 0 24 24"><circle cx="12" cy="12" r="8.4"></circle><path d="M12 7v5.2l3.6 2.2"></path><path d="M12 2v2M12 20v2M2 12h2M20 12h2"></path></symbol>
<symbol id="i-plane" viewBox="0 0 24 24"><path d="M3 13.6L20.5 7l-5.6 11.6-2.6-4.4z"></path><path d="M12.3 14.2L8.6 18"></path></symbol>
<symbol id="i-train" viewBox="0 0 24 24"><path d="M6.5 4h11v11h-11z"></path><path d="M6.5 9.5h11"></path><path d="M9 19.6l1.6-4M15 19.6l-1.6-4"></path><path d="M4.5 19.6h15"></path></symbol>
<symbol id="i-station" viewBox="0 0 24 24"><path d="M3.5 20h17"></path><path d="M7.5 20V9.5h9V20"></path><path d="M10.6 13.4h2.8"></path><path d="M12 4.5v5"></path></symbol>
<symbol id="i-border" viewBox="0 0 24 24"><path d="M12 2.5v3.6M12 9.4v5.2M12 17.9v3.6"></path><path d="M5.5 7.5l3.5-2M15 18.5l3.5-2"></path></symbol>
<symbol id="i-measure" viewBox="0 0 24 24"><path d="M3 9.5h18v5H3z"></path><path d="M7.5 9.5v2.6M12 9.5v3.4M16.5 9.5v2.6"></path></symbol>
<symbol id="i-photo" viewBox="0 0 24 24"><path d="M3.6 6.4h16.8v11.2H3.6z"></path><path d="M3.6 15l4.6-4 4.4 3.8 3-2.6 4.8 4.2"></path><circle cx="15.6" cy="10" r="1.3"></circle></symbol>
<symbol id="i-zone" viewBox="0 0 24 24"><path d="M4 8l6-4 5 2.6 5-2.6v12l-5 2.6-5-2.6-6 4z"></path><path d="M10 4v13M15 6.6v12"></path></symbol>
<symbol id="i-node" viewBox="0 0 24 24"><circle cx="12" cy="12" r="5.2"></circle></symbol>
<symbol id="i-check" viewBox="0 0 24 24"><path d="M4.5 12.5l4.8 4.6L19.5 6.8"></path></symbol>
<symbol id="i-chevron" viewBox="0 0 24 24"><path d="M8.5 5l7 7-7 7"></path></symbol>
<symbol id="i-stop" viewBox="0 0 24 24"><path d="M7 7h10v10H7z" fill="currentColor" stroke="none"></path></symbol>
<symbol id="i-route" viewBox="0 0 24 24"><path d="M3.5 20.5V13L13 3.5h7.5"></path></symbol>
</svg>